<?xml version="1.0" encoding="UTF-8" standalone="no"?>
<!-- Created with Inkscape (http://www.inkscape.org/) -->

<svg
   width="512"
   height="512"
   viewBox="0 0 512 512"
   version="1.1"
   id="svg1"
   xml:space="preserve"
   inkscape:export-filename="logo.png"
   inkscape:export-xdpi="96"
   inkscape:export-ydpi="96"
   inkscape:version="1.4 (86a8ad7, 2024-10-11)"
   sodipodi:docname="logo.svg"
   xmlns:inkscape="http://www.inkscape.org/namespaces/inkscape"
   xmlns:sodipodi="http://sodipodi.sourceforge.net/DTD/sodipodi-0.dtd"
   xmlns="http://www.w3.org/2000/svg"
   xmlns:svg="http://www.w3.org/2000/svg"><sodipodi:namedview
     id="namedview1"
     pagecolor="#ffffff"
     bordercolor="#000000"
     borderopacity="0.25"
     inkscape:showpageshadow="2"
     inkscape:pageopacity="0.0"
     inkscape:pagecheckerboard="0"
     inkscape:deskcolor="#d1d1d1"
     inkscape:document-units="px"
     inkscape:zoom="1.5761719"
     inkscape:cx="256"
     inkscape:cy="256"
     inkscape:window-width="1920"
     inkscape:window-height="1009"
     inkscape:window-x="-8"
     inkscape:window-y="-8"
     inkscape:window-maximized="1"
     inkscape:current-layer="layer1" /><defs
     id="defs1" /><g
     inkscape:label="Layer 1"
     inkscape:groupmode="layer"
     id="layer1"><rect
       style="fill:#178bff;fill-opacity:1;stroke-width:0.678001"
       id="rect1"
       width="512"
       height="512"
       x="-2.1316282e-14"
       y="4.2632564e-14"
       ry="140" /><path
       d="m 319.9453,194.1733 c -17.61713,3.42038 -29.35881,20.83136 -25.93843,38.45789 l 28.60914,147.17823 c 3.42969,17.61713 20.84076,29.35872 38.45789,25.92903 l 18.3949,-3.57031 c 17.61713,-3.42969 29.35881,-20.84067 25.93843,-38.45779 L 376.7981,216.53211 c -3.42029,-17.61713 -20.83137,-29.35881 -38.4578,-25.93843 z m -87.43918,-88.50743 c -17.94511,0 -32.7979,14.85279 -32.7979,32.7979 v 234.27064 c 0,17.9451 14.85279,32.7979 32.7979,32.7979 h 18.74168 c 17.9451,0 32.79789,-14.8528 32.79789,-32.7979 V 138.46377 c 0,-17.94511 -14.85279,-32.7979 -32.79789,-32.7979 z m -93.70822,0 c -17.94511,0 -32.7979,14.85279 -32.7979,32.7979 v 234.27064 c 0,17.9451 14.85279,32.7979 32.7979,32.7979 h 18.74168 c 17.9451,0 32.79789,-14.8528 32.79789,-32.7979 V 138.46377 c 0,-17.94511 -14.85279,-32.7979 -32.79789,-32.7979 z"
       id="path1"
       style="fill:#ffffff;fill-opacity:1;stroke-width:9.37082" /></g></svg>
