<?xml version="1.0" encoding="UTF-8" standalone="no"?>
<!-- Created with Inkscape (http://www.inkscape.org/) -->

<svg
   width="512"
   height="512"
   viewBox="0 0 512 512"
   version="1.1"
   id="svg1"
   inkscape:version="1.4 (86a8ad7, 2024-10-11)"
   sodipodi:docname="axuata.svg"
   inkscape:export-filename="axuata.png"
   inkscape:export-xdpi="96"
   inkscape:export-ydpi="96"
   xmlns:inkscape="http://www.inkscape.org/namespaces/inkscape"
   xmlns:sodipodi="http://sodipodi.sourceforge.net/DTD/sodipodi-0.dtd"
   xmlns="http://www.w3.org/2000/svg"
   xmlns:svg="http://www.w3.org/2000/svg">
  <sodipodi:namedview
     id="namedview1"
     pagecolor="#ffffff"
     bordercolor="#000000"
     borderopacity="0.25"
     inkscape:showpageshadow="2"
     inkscape:pageopacity="0.0"
     inkscape:pagecheckerboard="0"
     inkscape:deskcolor="#d1d1d1"
     inkscape:document-units="px"
     inkscape:zoom="1.4142136"
     inkscape:cx="232.99168"
     inkscape:cy="222.38508"
     inkscape:window-width="1920"
     inkscape:window-height="1009"
     inkscape:window-x="-8"
     inkscape:window-y="-8"
     inkscape:window-maximized="1"
     inkscape:current-layer="layer1"
     inkscape:export-bgcolor="#ffffff00" />
  <defs
     id="defs1" />
  <g
     inkscape:label="Layer 1"
     inkscape:groupmode="layer"
     id="layer1">
    <path
       id="rect6"
       style="fill:#49bcff;fill-opacity:1;stroke-width:1.10105"
       d="m 138.58274,105.99999 c -18.05069,0 -32.58275,14.53206 -32.58275,32.58275 v 76.93977 c 0,18.05069 14.53206,32.58275 32.58275,32.58275 h 62.1541 14.78567 32.58275 v -32.58275 -14.78567 -62.1541 c 0,-18.05069 -14.53206,-32.58275 -32.58275,-32.58275 z" />
    <path
       id="rect6-1"
       style="fill:#49bcff;fill-opacity:1;stroke-width:1.10105"
       d="m 263.89474,263.89473 v 32.58276 14.78566 62.1541 c 0,18.05069 14.53206,32.58276 32.58275,32.58276 h 76.93977 c 18.05069,0 32.58275,-14.53207 32.58275,-32.58276 v -76.93976 c 0,-18.05069 -14.53206,-32.58276 -32.58275,-32.58276 h -62.1541 -14.78567 z" />
    <path
       id="rect6-1-2"
       style="fill:#178bff;fill-opacity:1;stroke-width:0.856374"
       d="m 162.92075,263.89473 c -14.03942,0 -25.34181,11.30239 -25.34181,25.34181 v 59.84271 c 0,14.03942 11.30237,25.3418 25.34181,25.3418 h 59.84271 c 14.03942,0 25.3418,-11.30238 25.3418,-25.3418 v -37.8161 -22.02661 -25.34181 h -25.3418 -22.02662 z" />
    <path
       id="rect6-1-2-8"
       style="fill:#178bff;fill-opacity:1;stroke-width:0.856374"
       d="m 289.23654,137.57895 c -14.03942,0 -25.3418,11.30237 -25.3418,25.34179 v 37.8161 22.02662 25.3418 h 25.3418 22.02662 37.81609 c 14.03942,0 25.34181,-11.30238 25.34181,-25.3418 v -59.84272 c 0,-14.03942 -11.30239,-25.34179 -25.34181,-25.34179 z" />
    <rect
       style="fill:#333333;fill-opacity:0;stroke-width:1.11284"
       id="rect7"
       width="512"
       height="20"
       x="5.6843419e-14"
       y="246" />
    <rect
       style="fill:#444444;fill-opacity:0;stroke-width:1.11284"
       id="rect7-3"
       width="512"
       height="20"
       x="-5.3290705e-14"
       y="-266"
       transform="rotate(90)" />
  </g>
</svg>
