<?xml version="1.0" encoding="UTF-8" standalone="no"?>
<!-- Created with Inkscape (http://www.inkscape.org/) -->

<svg
   width="1460"
   height="512"
   viewBox="0 0 1460 512"
   version="1.1"
   id="svg1"
   sodipodi:docname="axuata-banner.svg"
   inkscape:version="1.4 (86a8ad7, 2024-10-11)"
   inkscape:export-filename="axuata-banner.png"
   inkscape:export-xdpi="96"
   inkscape:export-ydpi="96"
   xml:space="preserve"
   xmlns:inkscape="http://www.inkscape.org/namespaces/inkscape"
   xmlns:sodipodi="http://sodipodi.sourceforge.net/DTD/sodipodi-0.dtd"
   xmlns="http://www.w3.org/2000/svg"
   xmlns:svg="http://www.w3.org/2000/svg"><sodipodi:namedview
     id="namedview1"
     pagecolor="#ffffff"
     bordercolor="#000000"
     borderopacity="0.25"
     inkscape:showpageshadow="2"
     inkscape:pageopacity="0.0"
     inkscape:pagecheckerboard="0"
     inkscape:deskcolor="#d1d1d1"
     inkscape:document-units="mm"
     inkscape:zoom="0.5"
     inkscape:cx="429"
     inkscape:cy="375"
     inkscape:window-width="1920"
     inkscape:window-height="1009"
     inkscape:window-x="-8"
     inkscape:window-y="-8"
     inkscape:window-maximized="1"
     inkscape:current-layer="layer1" /><defs
     id="defs1" /><g
     inkscape:label="Layer 1"
     inkscape:groupmode="layer"
     id="layer1"
     transform="translate(-29.998906,-26.681957)"><path
       style="font-weight:bold;font-size:260px;font-family:'Neue Haas Grotesk Text Pro';-inkscape-font-specification:'Neue Haas Grotesk Text Pro Bold';fill:#313131;stroke-width:0;paint-order:stroke fill markers"
       d="m 493.9581,367.84195 69.69726,-193.47656 h 46.08399 l 69.95117,193.47656 h -46.8457 l -12.1875,-36.94336 h -70.20508 l -11.93359,36.94336 z m 66.9043,-68.68164 h 49.63867 l -11.67969,-36.05469 q -4.31641,-13.33008 -7.10937,-25.00976 -2.66602,-11.80664 -4.0625,-19.16993 -1.26954,-7.36328 -1.26954,-7.36328 h -0.63476 q 0,0 -1.14258,5.33203 -1.14258,5.20508 -3.04687,13.33008 -1.77735,8.125 -4.18946,17.01172 -2.28515,8.75977 -4.57031,15.86914 z m 126.31836,68.68164 49.0039,-73.125 -44.30664,-66.52344 h 46.97266 l 8.125,13.20313 q 3.55468,5.58593 6.85547,12.56836 3.42773,6.98242 5.58593,12.06054 2.15821,4.95118 2.15821,4.95118 h 0.63476 q 0,0 2.15821,-4.95118 2.1582,-5.07812 5.45898,-12.06054 3.30078,-6.98243 6.47461,-12.56836 l 7.74414,-13.20313 h 43.41797 l -42.65625,65.63477 49.0039,74.01367 h -47.73437 l -10.79102,-17.77344 q -3.17382,-5.96679 -6.72851,-13.20312 -3.55469,-7.23633 -6.09375,-12.44141 -2.41211,-5.33203 -2.41211,-5.33203 h -0.50781 q 0,0 -2.53907,5.33203 -2.53906,5.20508 -6.34765,12.44141 -3.68164,7.23633 -7.36328,13.20312 l -11.29883,17.77344 z m 206.04492,3.93555 q -15.86914,0 -26.78711,-6.34766 -10.91797,-6.47461 -16.63086,-18.02734 -5.58594,-11.55274 -5.58594,-26.91407 v -92.29492 h 41.25977 v 84.55078 q 0,11.55274 5.58593,18.02735 5.58594,6.34765 16.63086,6.34765 8.25196,0 14.21875,-3.80859 6.09375,-3.93555 9.26758,-10.66406 3.30078,-6.72852 3.30078,-15.36133 v -79.0918 h 40.625 v 139.64844 h -39.10156 v -20.05859 h -0.76172 q -5.07812,8.125 -11.17187,13.45703 -5.9668,5.33203 -13.58399,7.87109 -7.61719,2.66602 -17.26562,2.66602 z m 150.56642,-0.25391 q -13.584,0 -24.375,-4.69727 -10.6641,-4.82421 -16.8848,-14.21875 -6.09373,-9.39453 -6.09373,-22.97851 0,-15.36133 7.23633,-23.86719 7.3633,-8.50586 19.6777,-12.4414 12.4414,-4.0625 27.4219,-5.83985 12.4414,-1.65039 20.0586,-3.68164 7.7441,-2.1582 11.2988,-5.45898 3.5547,-3.30078 3.5547,-8.50586 0,-7.49024 -5.0781,-12.06055 -4.9512,-4.57031 -15.4883,-4.57031 -11.6797,0 -17.5195,4.95117 -5.8399,4.95117 -6.6016,13.20312 h -37.7051 q 0.5078,-11.80664 7.2364,-22.21679 6.7285,-10.53711 20.0586,-17.01172 13.457,-6.47461 34.0234,-6.47461 13.2031,0 22.8516,2.03125 9.7753,1.9043 16.8847,6.2207 10.791,6.22071 15.8692,16.75782 5.205,10.5371 5.205,24.6289 v 70.9668 q 0,8.125 1.2696,12.82226 1.2695,4.69727 3.9355,6.47461 v 2.28516 h -39.7363 q -1.6504,-2.41211 -2.9199,-6.72852 -1.1426,-4.3164 -1.7774,-10.15625 h -0.5078 q -6.8555,9.52149 -16.3769,15.10743 -9.5215,5.45898 -25.5176,5.45898 z m 12.8222,-26.78711 q 9.1407,0 15.8692,-3.42773 6.7285,-3.55469 10.4101,-9.52149 3.8086,-6.09375 3.8086,-13.58398 v -17.90039 q -2.9199,1.77734 -6.8554,3.17383 -3.8086,1.26953 -8.125,2.4121 -4.3164,1.14258 -8.8867,2.15821 -9.0137,1.90429 -14.9805,4.3164 -5.8399,2.41211 -8.7598,6.22071 -2.793,3.68164 -2.793,9.77539 0,5.96679 2.6661,9.64844 2.7929,3.55468 7.3632,5.20507 4.6973,1.52344 10.2832,1.52344 z m 151.709,24.62891 q -12.9492,0 -22.8515,-3.30078 -9.7754,-3.30079 -15.2344,-11.29883 -5.459,-7.99805 -5.459,-22.08985 v -78.20312 h -21.0742 v -26.2793 h 21.0742 v -44.56054 h 40.2442 v 44.56054 h 27.2949 v 26.2793 h -27.2949 v 69.31641 q 0,7.74414 4.0625,10.5371 4.1894,2.79297 11.5527,2.79297 2.0312,0 4.6973,-0.12695 2.666,-0.25391 4.6972,-0.38086 h 2.0313 v 30.72266 q -3.3008,0.50781 -9.3946,1.26953 -6.0937,0.76172 -14.3457,0.76172 z m 88.7403,2.1582 q -13.584,0 -24.375,-4.69727 -10.6641,-4.82421 -16.8848,-14.21875 -6.0937,-9.39453 -6.0937,-22.97851 0,-15.36133 7.2363,-23.86719 7.3633,-8.50586 19.6777,-12.4414 12.4414,-4.0625 27.4219,-5.83985 12.4414,-1.65039 20.0586,-3.68164 7.7441,-2.1582 11.2988,-5.45898 3.5547,-3.30078 3.5547,-8.50586 0,-7.49024 -5.0781,-12.06055 -4.9512,-4.57031 -15.4883,-4.57031 -11.6797,0 -17.5195,4.95117 -5.8399,4.95117 -6.6016,13.20312 h -37.7051 q 0.5078,-11.80664 7.2363,-22.21679 6.7286,-10.53711 20.0586,-17.01172 13.4571,-6.47461 34.0235,-6.47461 13.2031,0 22.8515,2.03125 9.7754,1.9043 16.8848,6.2207 10.791,6.22071 15.8691,16.75782 5.2051,10.5371 5.2051,24.6289 v 70.9668 q 0,8.125 1.2696,12.82226 1.2695,4.69727 3.9355,6.47461 v 2.28516 h -39.7363 q -1.6504,-2.41211 -2.9199,-6.72852 -1.1426,-4.3164 -1.7774,-10.15625 h -0.5078 q -6.8555,9.52149 -16.377,15.10743 -9.5214,5.45898 -25.5175,5.45898 z m 12.8222,-26.78711 q 9.1407,0 15.8692,-3.42773 6.7285,-3.55469 10.4101,-9.52149 3.8086,-6.09375 3.8086,-13.58398 v -17.90039 q -2.9199,1.77734 -6.8554,3.17383 -3.8086,1.26953 -8.125,2.4121 -4.3165,1.14258 -8.8868,2.15821 -9.0136,1.90429 -14.9804,4.3164 -5.8399,2.41211 -8.7598,6.22071 -2.793,3.68164 -2.793,9.77539 0,5.96679 2.666,9.64844 2.793,3.55468 7.3633,5.20507 4.6973,1.52344 10.2832,1.52344 z"
       id="text1"
       aria-label="Axuata" /><g
       inkscape:label="Layer 1"
       id="layer1-88"
       transform="translate(29.998906,26.681957)"><path
         id="rect6-2"
         style="fill:#49bcff;fill-opacity:1;stroke-width:1.10105"
         d="m 138.58274,105.99999 c -18.05069,0 -32.58275,14.53206 -32.58275,32.58275 v 76.93977 c 0,18.05069 14.53206,32.58275 32.58275,32.58275 h 62.1541 14.78567 32.58275 v -32.58275 -14.78567 -62.1541 c 0,-18.05069 -14.53206,-32.58275 -32.58275,-32.58275 z" /><path
         id="rect6-1-4"
         style="fill:#49bcff;fill-opacity:1;stroke-width:1.10105"
         d="m 263.89474,263.89473 v 32.58276 14.78566 62.1541 c 0,18.05069 14.53206,32.58276 32.58275,32.58276 h 76.93977 c 18.05069,0 32.58275,-14.53207 32.58275,-32.58276 v -76.93976 c 0,-18.05069 -14.53206,-32.58276 -32.58275,-32.58276 h -62.1541 -14.78567 z" /><path
         id="rect6-1-2-5"
         style="fill:#178bff;fill-opacity:1;stroke-width:0.856374"
         d="m 162.92075,263.89473 c -14.03942,0 -25.34181,11.30239 -25.34181,25.34181 v 59.84271 c 0,14.03942 11.30237,25.3418 25.34181,25.3418 h 59.84271 c 14.03942,0 25.3418,-11.30238 25.3418,-25.3418 v -37.8161 -22.02661 -25.34181 h -25.3418 -22.02662 z" /><path
         id="rect6-1-2-8-5"
         style="fill:#178bff;fill-opacity:1;stroke-width:0.856374"
         d="m 289.23654,137.57895 c -14.03942,0 -25.3418,11.30237 -25.3418,25.34179 v 37.8161 22.02662 25.3418 h 25.3418 22.02662 37.81609 c 14.03942,0 25.34181,-11.30238 25.34181,-25.3418 v -59.84272 c 0,-14.03942 -11.30239,-25.34179 -25.34181,-25.34179 z" /><rect
         style="fill:#333333;fill-opacity:0;stroke-width:1.11284"
         id="rect7-1"
         width="512"
         height="20"
         x="5.6843419e-14"
         y="246" /><rect
         style="fill:#444444;fill-opacity:0;stroke-width:1.11284"
         id="rect7-3-7"
         width="512"
         height="20"
         x="-5.3290705e-14"
         y="-266"
         transform="rotate(90)" /></g></g></svg>
